<mxfile host="Electron" agent="Mozilla/5.0 (Windows NT 10.0; Win64; x64) AppleWebKit/537.36 (KHTML, like Gecko) draw.io/28.0.6 Chrome/138.0.7204.100 Electron/37.2.3 Safari/537.36" version="28.0.6">
  <diagram name="PÃ¡gina-1" id="NqLssx0y5julMfDjZnWu">
    <mxGraphModel dx="2679" dy="1018" grid="1" gridSize="10" guides="1" tooltips="1" connect="1" arrows="1" fold="1" page="1" pageScale="1" pageWidth="827" pageHeight="1169" math="0" shadow="0">
      <root>
        <mxCell id="0" />
        <mxCell id="1" parent="0" />
        <mxCell id="WmbsGpXp2DMXk3GeZqub-1" value="Persona" style="swimlane;fontStyle=0;childLayout=stackLayout;horizontal=1;startSize=26;fillColor=none;horizontalStack=0;resizeParent=1;resizeParentMax=0;resizeLast=0;collapsible=1;marginBottom=0;whiteSpace=wrap;html=1;" parent="1" vertex="1">
          <mxGeometry x="330" y="120" width="140" height="160" as="geometry" />
        </mxCell>
        <mxCell id="WmbsGpXp2DMXk3GeZqub-2" value="dni" style="text;strokeColor=none;fillColor=none;align=left;verticalAlign=top;spacingLeft=4;spacingRight=4;overflow=hidden;rotatable=0;points=[[0,0.5],[1,0.5]];portConstraint=eastwest;whiteSpace=wrap;html=1;" parent="WmbsGpXp2DMXk3GeZqub-1" vertex="1">
          <mxGeometry y="26" width="140" height="26" as="geometry" />
        </mxCell>
        <mxCell id="WmbsGpXp2DMXk3GeZqub-3" value="nombre" style="text;strokeColor=none;fillColor=none;align=left;verticalAlign=top;spacingLeft=4;spacingRight=4;overflow=hidden;rotatable=0;points=[[0,0.5],[1,0.5]];portConstraint=eastwest;whiteSpace=wrap;html=1;" parent="WmbsGpXp2DMXk3GeZqub-1" vertex="1">
          <mxGeometry y="52" width="140" height="26" as="geometry" />
        </mxCell>
        <mxCell id="WmbsGpXp2DMXk3GeZqub-4" value="apellido" style="text;strokeColor=none;fillColor=none;align=left;verticalAlign=top;spacingLeft=4;spacingRight=4;overflow=hidden;rotatable=0;points=[[0,0.5],[1,0.5]];portConstraint=eastwest;whiteSpace=wrap;html=1;" parent="WmbsGpXp2DMXk3GeZqub-1" vertex="1">
          <mxGeometry y="78" width="140" height="82" as="geometry" />
        </mxCell>
        <mxCell id="WmbsGpXp2DMXk3GeZqub-5" value="Estudiante" style="swimlane;fontStyle=0;childLayout=stackLayout;horizontal=1;startSize=26;fillColor=none;horizontalStack=0;resizeParent=1;resizeParentMax=0;resizeLast=0;collapsible=1;marginBottom=0;whiteSpace=wrap;html=1;" parent="1" vertex="1">
          <mxGeometry x="100" y="418" width="140" height="78" as="geometry" />
        </mxCell>
        <mxCell id="WmbsGpXp2DMXk3GeZqub-6" value="tipo: TEstudiante" style="text;strokeColor=none;fillColor=none;align=left;verticalAlign=top;spacingLeft=4;spacingRight=4;overflow=hidden;rotatable=0;points=[[0,0.5],[1,0.5]];portConstraint=eastwest;whiteSpace=wrap;html=1;" parent="WmbsGpXp2DMXk3GeZqub-5" vertex="1">
          <mxGeometry y="26" width="140" height="26" as="geometry" />
        </mxCell>
        <mxCell id="0xZ3MYLfQqbF8ofGHadz-17" value="porc_materias" style="text;strokeColor=none;fillColor=none;align=left;verticalAlign=top;spacingLeft=4;spacingRight=4;overflow=hidden;rotatable=0;points=[[0,0.5],[1,0.5]];portConstraint=eastwest;whiteSpace=wrap;html=1;" parent="WmbsGpXp2DMXk3GeZqub-5" vertex="1">
          <mxGeometry y="52" width="140" height="26" as="geometry" />
        </mxCell>
        <mxCell id="WmbsGpXp2DMXk3GeZqub-9" value="Docente" style="swimlane;fontStyle=0;childLayout=stackLayout;horizontal=1;startSize=52;fillColor=none;horizontalStack=0;resizeParent=1;resizeParentMax=0;resizeLast=0;collapsible=1;marginBottom=0;whiteSpace=wrap;html=1;" parent="1" vertex="1">
          <mxGeometry x="550" y="418" width="100" height="78" as="geometry" />
        </mxCell>
        <mxCell id="0xZ3MYLfQqbF8ofGHadz-1" value="tipo: categoria" style="text;strokeColor=none;fillColor=none;align=left;verticalAlign=top;spacingLeft=4;spacingRight=4;overflow=hidden;rotatable=0;points=[[0,0.5],[1,0.5]];portConstraint=eastwest;whiteSpace=wrap;html=1;" parent="WmbsGpXp2DMXk3GeZqub-9" vertex="1">
          <mxGeometry y="52" width="100" height="26" as="geometry" />
        </mxCell>
        <mxCell id="WmbsGpXp2DMXk3GeZqub-13" value="celular" style="text;strokeColor=none;fillColor=none;align=left;verticalAlign=top;spacingLeft=4;spacingRight=4;overflow=hidden;rotatable=0;points=[[0,0.5],[1,0.5]];portConstraint=eastwest;whiteSpace=wrap;html=1;" parent="1" vertex="1">
          <mxGeometry x="330" y="230" width="140" height="26" as="geometry" />
        </mxCell>
        <mxCell id="WmbsGpXp2DMXk3GeZqub-14" value="email" style="text;strokeColor=none;fillColor=none;align=left;verticalAlign=top;spacingLeft=4;spacingRight=4;overflow=hidden;rotatable=0;points=[[0,0.5],[1,0.5]];portConstraint=eastwest;whiteSpace=wrap;html=1;" parent="1" vertex="1">
          <mxGeometry x="330" y="256" width="140" height="26" as="geometry" />
        </mxCell>
        <mxCell id="WmbsGpXp2DMXk3GeZqub-15" value="TEstudiante" style="swimlane;fontStyle=0;childLayout=stackLayout;horizontal=1;startSize=26;fillColor=none;horizontalStack=0;resizeParent=1;resizeParentMax=0;resizeLast=0;collapsible=1;marginBottom=0;whiteSpace=wrap;html=1;" parent="1" vertex="1">
          <mxGeometry x="-483" y="160" width="140" height="130" as="geometry" />
        </mxCell>
        <mxCell id="WmbsGpXp2DMXk3GeZqub-16" value="efectivo" style="text;strokeColor=none;fillColor=none;align=left;verticalAlign=top;spacingLeft=4;spacingRight=4;overflow=hidden;rotatable=0;points=[[0,0.5],[1,0.5]];portConstraint=eastwest;whiteSpace=wrap;html=1;" parent="WmbsGpXp2DMXk3GeZqub-15" vertex="1">
          <mxGeometry y="26" width="140" height="26" as="geometry" />
        </mxCell>
        <mxCell id="WmbsGpXp2DMXk3GeZqub-17" value="no_efectivo" style="text;strokeColor=none;fillColor=none;align=left;verticalAlign=top;spacingLeft=4;spacingRight=4;overflow=hidden;rotatable=0;points=[[0,0.5],[1,0.5]];portConstraint=eastwest;whiteSpace=wrap;html=1;" parent="WmbsGpXp2DMXk3GeZqub-15" vertex="1">
          <mxGeometry y="52" width="140" height="26" as="geometry" />
        </mxCell>
        <mxCell id="0xZ3MYLfQqbF8ofGHadz-18" value="avanzado" style="text;strokeColor=none;fillColor=none;align=left;verticalAlign=top;spacingLeft=4;spacingRight=4;overflow=hidden;rotatable=0;points=[[0,0.5],[1,0.5]];portConstraint=eastwest;whiteSpace=wrap;html=1;" parent="WmbsGpXp2DMXk3GeZqub-15" vertex="1">
          <mxGeometry y="78" width="140" height="26" as="geometry" />
        </mxCell>
        <mxCell id="0xZ3MYLfQqbF8ofGHadz-19" value="ingresante" style="text;strokeColor=none;fillColor=none;align=left;verticalAlign=top;spacingLeft=4;spacingRight=4;overflow=hidden;rotatable=0;points=[[0,0.5],[1,0.5]];portConstraint=eastwest;whiteSpace=wrap;html=1;" parent="WmbsGpXp2DMXk3GeZqub-15" vertex="1">
          <mxGeometry y="104" width="140" height="26" as="geometry" />
        </mxCell>
        <mxCell id="WmbsGpXp2DMXk3GeZqub-20" value="" style="triangle;whiteSpace=wrap;html=1;direction=north;" parent="1" vertex="1">
          <mxGeometry x="380" y="280" width="40" height="30" as="geometry" />
        </mxCell>
        <mxCell id="WmbsGpXp2DMXk3GeZqub-21" value="" style="endArrow=none;html=1;rounded=0;" parent="1" edge="1">
          <mxGeometry width="50" height="50" relative="1" as="geometry">
            <mxPoint x="400" y="360" as="sourcePoint" />
            <mxPoint x="400" y="310" as="targetPoint" />
          </mxGeometry>
        </mxCell>
        <mxCell id="WmbsGpXp2DMXk3GeZqub-22" value="" style="endArrow=none;html=1;rounded=0;" parent="1" edge="1">
          <mxGeometry width="50" height="50" relative="1" as="geometry">
            <mxPoint x="270" y="360" as="sourcePoint" />
            <mxPoint x="400" y="360" as="targetPoint" />
          </mxGeometry>
        </mxCell>
        <mxCell id="WmbsGpXp2DMXk3GeZqub-23" value="" style="endArrow=none;html=1;rounded=0;" parent="1" edge="1">
          <mxGeometry width="50" height="50" relative="1" as="geometry">
            <mxPoint x="400" y="360" as="sourcePoint" />
            <mxPoint x="600" y="360" as="targetPoint" />
          </mxGeometry>
        </mxCell>
        <mxCell id="WmbsGpXp2DMXk3GeZqub-24" value="" style="endArrow=none;html=1;rounded=0;" parent="1" edge="1">
          <mxGeometry width="50" height="50" relative="1" as="geometry">
            <mxPoint x="170" y="360" as="sourcePoint" />
            <mxPoint x="270" y="360" as="targetPoint" />
          </mxGeometry>
        </mxCell>
        <mxCell id="WmbsGpXp2DMXk3GeZqub-25" value="" style="endArrow=none;html=1;rounded=0;exitX=0.5;exitY=0;exitDx=0;exitDy=0;" parent="1" source="WmbsGpXp2DMXk3GeZqub-9" edge="1">
          <mxGeometry width="50" height="50" relative="1" as="geometry">
            <mxPoint x="600" y="400" as="sourcePoint" />
            <mxPoint x="599.58" y="360" as="targetPoint" />
          </mxGeometry>
        </mxCell>
        <mxCell id="WmbsGpXp2DMXk3GeZqub-44" value="" style="endArrow=none;html=1;rounded=0;exitX=0.5;exitY=0;exitDx=0;exitDy=0;" parent="1" source="WmbsGpXp2DMXk3GeZqub-5" edge="1">
          <mxGeometry width="50" height="50" relative="1" as="geometry">
            <mxPoint x="169.58" y="410" as="sourcePoint" />
            <mxPoint x="170" y="360" as="targetPoint" />
          </mxGeometry>
        </mxCell>
        <mxCell id="WmbsGpXp2DMXk3GeZqub-49" value="Materia" style="swimlane;fontStyle=0;childLayout=stackLayout;horizontal=1;startSize=26;fillColor=none;horizontalStack=0;resizeParent=1;resizeParentMax=0;resizeLast=0;collapsible=1;marginBottom=0;whiteSpace=wrap;html=1;" parent="1" vertex="1">
          <mxGeometry x="340" y="840" width="140" height="78" as="geometry" />
        </mxCell>
        <mxCell id="WmbsGpXp2DMXk3GeZqub-50" value="codigo" style="text;strokeColor=none;fillColor=none;align=left;verticalAlign=top;spacingLeft=4;spacingRight=4;overflow=hidden;rotatable=0;points=[[0,0.5],[1,0.5]];portConstraint=eastwest;whiteSpace=wrap;html=1;" parent="WmbsGpXp2DMXk3GeZqub-49" vertex="1">
          <mxGeometry y="26" width="140" height="26" as="geometry" />
        </mxCell>
        <mxCell id="WmbsGpXp2DMXk3GeZqub-51" value="nombre" style="text;strokeColor=none;fillColor=none;align=left;verticalAlign=top;spacingLeft=4;spacingRight=4;overflow=hidden;rotatable=0;points=[[0,0.5],[1,0.5]];portConstraint=eastwest;whiteSpace=wrap;html=1;" parent="WmbsGpXp2DMXk3GeZqub-49" vertex="1">
          <mxGeometry y="52" width="140" height="26" as="geometry" />
        </mxCell>
        <mxCell id="WmbsGpXp2DMXk3GeZqub-53" value="Plan_de_Estudio" style="swimlane;fontStyle=0;childLayout=stackLayout;horizontal=1;startSize=26;fillColor=none;horizontalStack=0;resizeParent=1;resizeParentMax=0;resizeLast=0;collapsible=1;marginBottom=0;whiteSpace=wrap;html=1;" parent="1" vertex="1">
          <mxGeometry x="344" y="1020" width="140" height="130" as="geometry" />
        </mxCell>
        <mxCell id="WmbsGpXp2DMXk3GeZqub-54" value="codigo_plan" style="text;strokeColor=none;fillColor=none;align=left;verticalAlign=top;spacingLeft=4;spacingRight=4;overflow=hidden;rotatable=0;points=[[0,0.5],[1,0.5]];portConstraint=eastwest;whiteSpace=wrap;html=1;" parent="WmbsGpXp2DMXk3GeZqub-53" vertex="1">
          <mxGeometry y="26" width="140" height="26" as="geometry" />
        </mxCell>
        <mxCell id="WmbsGpXp2DMXk3GeZqub-55" value="anio" style="text;strokeColor=none;fillColor=none;align=left;verticalAlign=top;spacingLeft=4;spacingRight=4;overflow=hidden;rotatable=0;points=[[0,0.5],[1,0.5]];portConstraint=eastwest;whiteSpace=wrap;html=1;" parent="WmbsGpXp2DMXk3GeZqub-53" vertex="1">
          <mxGeometry y="52" width="140" height="26" as="geometry" />
        </mxCell>
        <mxCell id="eZNoGlo1x7P27jBiXh__-4" value="fecha_final" style="text;strokeColor=none;fillColor=none;align=left;verticalAlign=top;spacingLeft=4;spacingRight=4;overflow=hidden;rotatable=0;points=[[0,0.5],[1,0.5]];portConstraint=eastwest;whiteSpace=wrap;html=1;" parent="WmbsGpXp2DMXk3GeZqub-53" vertex="1">
          <mxGeometry y="78" width="140" height="26" as="geometry" />
        </mxCell>
        <mxCell id="eZNoGlo1x7P27jBiXh__-2" value="fecha_inicio" style="text;strokeColor=none;fillColor=none;align=left;verticalAlign=top;spacingLeft=4;spacingRight=4;overflow=hidden;rotatable=0;points=[[0,0.5],[1,0.5]];portConstraint=eastwest;whiteSpace=wrap;html=1;" parent="WmbsGpXp2DMXk3GeZqub-53" vertex="1">
          <mxGeometry y="104" width="140" height="26" as="geometry" />
        </mxCell>
        <mxCell id="WmbsGpXp2DMXk3GeZqub-56" value="Carrera" style="swimlane;fontStyle=0;childLayout=stackLayout;horizontal=1;startSize=26;fillColor=none;horizontalStack=0;resizeParent=1;resizeParentMax=0;resizeLast=0;collapsible=1;marginBottom=0;whiteSpace=wrap;html=1;" parent="1" vertex="1">
          <mxGeometry x="80" y="1020" width="140" height="78" as="geometry" />
        </mxCell>
        <mxCell id="WmbsGpXp2DMXk3GeZqub-57" value="codigo_carrera" style="text;strokeColor=none;fillColor=none;align=left;verticalAlign=top;spacingLeft=4;spacingRight=4;overflow=hidden;rotatable=0;points=[[0,0.5],[1,0.5]];portConstraint=eastwest;whiteSpace=wrap;html=1;" parent="WmbsGpXp2DMXk3GeZqub-56" vertex="1">
          <mxGeometry y="26" width="140" height="26" as="geometry" />
        </mxCell>
        <mxCell id="WmbsGpXp2DMXk3GeZqub-58" value="nombre" style="text;strokeColor=none;fillColor=none;align=left;verticalAlign=top;spacingLeft=4;spacingRight=4;overflow=hidden;rotatable=0;points=[[0,0.5],[1,0.5]];portConstraint=eastwest;whiteSpace=wrap;html=1;" parent="WmbsGpXp2DMXk3GeZqub-56" vertex="1">
          <mxGeometry y="52" width="140" height="26" as="geometry" />
        </mxCell>
        <mxCell id="WmbsGpXp2DMXk3GeZqub-59" value="Facultad" style="swimlane;fontStyle=0;childLayout=stackLayout;horizontal=1;startSize=26;fillColor=none;horizontalStack=0;resizeParent=1;resizeParentMax=0;resizeLast=0;collapsible=1;marginBottom=0;whiteSpace=wrap;html=1;" parent="1" vertex="1">
          <mxGeometry x="-160" y="1020" width="140" height="78" as="geometry" />
        </mxCell>
        <mxCell id="WmbsGpXp2DMXk3GeZqub-60" value="codigo_facultad&amp;nbsp;" style="text;strokeColor=none;fillColor=none;align=left;verticalAlign=top;spacingLeft=4;spacingRight=4;overflow=hidden;rotatable=0;points=[[0,0.5],[1,0.5]];portConstraint=eastwest;whiteSpace=wrap;html=1;" parent="WmbsGpXp2DMXk3GeZqub-59" vertex="1">
          <mxGeometry y="26" width="140" height="26" as="geometry" />
        </mxCell>
        <mxCell id="WmbsGpXp2DMXk3GeZqub-61" value="nombre" style="text;strokeColor=none;fillColor=none;align=left;verticalAlign=top;spacingLeft=4;spacingRight=4;overflow=hidden;rotatable=0;points=[[0,0.5],[1,0.5]];portConstraint=eastwest;whiteSpace=wrap;html=1;" parent="WmbsGpXp2DMXk3GeZqub-59" vertex="1">
          <mxGeometry y="52" width="140" height="26" as="geometry" />
        </mxCell>
        <mxCell id="WmbsGpXp2DMXk3GeZqub-62" value="Usuario" style="swimlane;fontStyle=0;childLayout=stackLayout;horizontal=1;startSize=26;fillColor=none;horizontalStack=0;resizeParent=1;resizeParentMax=0;resizeLast=0;collapsible=1;marginBottom=0;whiteSpace=wrap;html=1;" parent="1" vertex="1">
          <mxGeometry x="670" y="120" width="140" height="100" as="geometry" />
        </mxCell>
        <mxCell id="WmbsGpXp2DMXk3GeZqub-63" value="user" style="text;strokeColor=none;fillColor=none;align=left;verticalAlign=top;spacingLeft=4;spacingRight=4;overflow=hidden;rotatable=0;points=[[0,0.5],[1,0.5]];portConstraint=eastwest;whiteSpace=wrap;html=1;" parent="WmbsGpXp2DMXk3GeZqub-62" vertex="1">
          <mxGeometry y="26" width="140" height="26" as="geometry" />
        </mxCell>
        <mxCell id="WmbsGpXp2DMXk3GeZqub-64" value="password" style="text;strokeColor=none;fillColor=none;align=left;verticalAlign=top;spacingLeft=4;spacingRight=4;overflow=hidden;rotatable=0;points=[[0,0.5],[1,0.5]];portConstraint=eastwest;whiteSpace=wrap;html=1;" parent="WmbsGpXp2DMXk3GeZqub-62" vertex="1">
          <mxGeometry y="52" width="140" height="48" as="geometry" />
        </mxCell>
        <mxCell id="WmbsGpXp2DMXk3GeZqub-65" value="" style="endArrow=none;html=1;rounded=0;entryX=0.004;entryY=0.923;entryDx=0;entryDy=0;entryPerimeter=0;" parent="1" target="WmbsGpXp2DMXk3GeZqub-57" edge="1">
          <mxGeometry width="50" height="50" relative="1" as="geometry">
            <mxPoint x="-20" y="1070" as="sourcePoint" />
            <mxPoint x="30" y="1020" as="targetPoint" />
          </mxGeometry>
        </mxCell>
        <mxCell id="WmbsGpXp2DMXk3GeZqub-66" value="" style="endArrow=none;html=1;rounded=0;entryX=0;entryY=0.921;entryDx=0;entryDy=0;entryPerimeter=0;" parent="1" target="WmbsGpXp2DMXk3GeZqub-54" edge="1">
          <mxGeometry width="50" height="50" relative="1" as="geometry">
            <mxPoint x="220" y="1070" as="sourcePoint" />
            <mxPoint x="340" y="1070" as="targetPoint" />
          </mxGeometry>
        </mxCell>
        <mxCell id="WmbsGpXp2DMXk3GeZqub-67" value="1" style="text;html=1;align=center;verticalAlign=middle;resizable=0;points=[];autosize=1;strokeColor=none;fillColor=none;" parent="1" vertex="1">
          <mxGeometry x="-30" y="1048" width="30" height="30" as="geometry" />
        </mxCell>
        <mxCell id="WmbsGpXp2DMXk3GeZqub-68" value="*" style="text;html=1;align=center;verticalAlign=middle;resizable=0;points=[];autosize=1;strokeColor=none;fillColor=none;" parent="1" vertex="1">
          <mxGeometry x="55" y="1048" width="30" height="30" as="geometry" />
        </mxCell>
        <mxCell id="WmbsGpXp2DMXk3GeZqub-69" value="1" style="text;html=1;align=center;verticalAlign=middle;resizable=0;points=[];autosize=1;strokeColor=none;fillColor=none;" parent="1" vertex="1">
          <mxGeometry x="210" y="1048" width="30" height="30" as="geometry" />
        </mxCell>
        <mxCell id="WmbsGpXp2DMXk3GeZqub-70" value="*" style="text;html=1;align=center;verticalAlign=middle;resizable=0;points=[];autosize=1;strokeColor=none;fillColor=none;" parent="1" vertex="1">
          <mxGeometry x="320" y="1048" width="30" height="30" as="geometry" />
        </mxCell>
        <mxCell id="WmbsGpXp2DMXk3GeZqub-71" value="" style="endArrow=none;html=1;rounded=0;entryX=0.484;entryY=1.07;entryDx=0;entryDy=0;entryPerimeter=0;exitX=0.456;exitY=0.013;exitDx=0;exitDy=0;exitPerimeter=0;" parent="1" source="WmbsGpXp2DMXk3GeZqub-53" target="WmbsGpXp2DMXk3GeZqub-51" edge="1">
          <mxGeometry width="50" height="50" relative="1" as="geometry">
            <mxPoint x="370" y="970" as="sourcePoint" />
            <mxPoint x="420" y="920" as="targetPoint" />
          </mxGeometry>
        </mxCell>
        <mxCell id="WmbsGpXp2DMXk3GeZqub-72" value="*" style="text;html=1;align=center;verticalAlign=middle;resizable=0;points=[];autosize=1;strokeColor=none;fillColor=none;" parent="1" vertex="1">
          <mxGeometry x="399" y="910" width="30" height="30" as="geometry" />
        </mxCell>
        <mxCell id="WmbsGpXp2DMXk3GeZqub-73" value="*" style="text;html=1;align=center;verticalAlign=middle;resizable=0;points=[];autosize=1;strokeColor=none;fillColor=none;" parent="1" vertex="1">
          <mxGeometry x="400" y="998" width="30" height="30" as="geometry" />
        </mxCell>
        <mxCell id="WmbsGpXp2DMXk3GeZqub-76" value="*" style="text;html=1;align=center;verticalAlign=middle;resizable=0;points=[];autosize=1;strokeColor=none;fillColor=none;" parent="1" vertex="1">
          <mxGeometry x="265" y="980" width="30" height="30" as="geometry" />
        </mxCell>
        <mxCell id="WmbsGpXp2DMXk3GeZqub-78" value="tiene" style="text;html=1;align=center;verticalAlign=middle;resizable=0;points=[];autosize=1;strokeColor=none;fillColor=none;" parent="1" vertex="1">
          <mxGeometry x="215" y="910" width="50" height="30" as="geometry" />
        </mxCell>
        <mxCell id="WmbsGpXp2DMXk3GeZqub-79" value="tiene" style="text;html=1;align=center;verticalAlign=middle;resizable=0;points=[];autosize=1;strokeColor=none;fillColor=none;" parent="1" vertex="1">
          <mxGeometry x="245" y="1048" width="50" height="30" as="geometry" />
        </mxCell>
        <mxCell id="WmbsGpXp2DMXk3GeZqub-80" value="tiene" style="text;html=1;align=center;verticalAlign=middle;resizable=0;points=[];autosize=1;strokeColor=none;fillColor=none;" parent="1" vertex="1">
          <mxGeometry x="399" y="950" width="50" height="30" as="geometry" />
        </mxCell>
        <mxCell id="WmbsGpXp2DMXk3GeZqub-81" value="tiene" style="text;html=1;align=center;verticalAlign=middle;resizable=0;points=[];autosize=1;strokeColor=none;fillColor=none;" parent="1" vertex="1">
          <mxGeometry x="-5" y="1048" width="50" height="30" as="geometry" />
        </mxCell>
        <mxCell id="WmbsGpXp2DMXk3GeZqub-82" value="" style="endArrow=none;html=1;rounded=0;entryX=0.01;entryY=1.013;entryDx=0;entryDy=0;entryPerimeter=0;exitX=0;exitY=0.192;exitDx=0;exitDy=0;exitPerimeter=0;" parent="1" source="WmbsGpXp2DMXk3GeZqub-5" target="eZNoGlo1x7P27jBiXh__-2" edge="1">
          <mxGeometry width="50" height="50" relative="1" as="geometry">
            <mxPoint x="40" y="450" as="sourcePoint" />
            <mxPoint x="150" y="1093" as="targetPoint" />
            <Array as="points">
              <mxPoint x="90" y="433" />
              <mxPoint x="40" y="433" />
              <mxPoint x="-240" y="433" />
              <mxPoint x="-240" y="1150" />
            </Array>
          </mxGeometry>
        </mxCell>
        <mxCell id="WmbsGpXp2DMXk3GeZqub-83" value="*" style="text;html=1;align=center;verticalAlign=middle;resizable=0;points=[];autosize=1;strokeColor=none;fillColor=none;" parent="1" vertex="1">
          <mxGeometry x="80" y="414" width="30" height="30" as="geometry" />
        </mxCell>
        <mxCell id="WmbsGpXp2DMXk3GeZqub-85" value="" style="endArrow=none;html=1;rounded=0;exitX=1.034;exitY=0.393;exitDx=0;exitDy=0;exitPerimeter=0;" parent="1" source="WmbsGpXp2DMXk3GeZqub-9" edge="1">
          <mxGeometry width="50" height="50" relative="1" as="geometry">
            <mxPoint x="250" y="448" as="sourcePoint" />
            <mxPoint x="150" y="1100" as="targetPoint" />
            <Array as="points">
              <mxPoint x="760" y="448" />
              <mxPoint x="760" y="818" />
              <mxPoint x="760" y="1208" />
              <mxPoint x="150" y="1208" />
            </Array>
          </mxGeometry>
        </mxCell>
        <mxCell id="WmbsGpXp2DMXk3GeZqub-86" value="*" style="text;html=1;align=center;verticalAlign=middle;resizable=0;points=[];autosize=1;strokeColor=none;fillColor=none;" parent="1" vertex="1">
          <mxGeometry x="640" y="420" width="30" height="30" as="geometry" />
        </mxCell>
        <mxCell id="WmbsGpXp2DMXk3GeZqub-87" value="*" style="text;html=1;align=center;verticalAlign=middle;resizable=0;points=[];autosize=1;strokeColor=none;fillColor=none;" parent="1" vertex="1">
          <mxGeometry x="-100" y="1098" width="30" height="30" as="geometry" />
        </mxCell>
        <mxCell id="WmbsGpXp2DMXk3GeZqub-96" value="" style="endArrow=none;html=1;rounded=0;exitX=0.144;exitY=0.009;exitDx=0;exitDy=0;exitPerimeter=0;entryX=0.987;entryY=0.922;entryDx=0;entryDy=0;entryPerimeter=0;" parent="1" source="WmbsGpXp2DMXk3GeZqub-49" target="0xZ3MYLfQqbF8ofGHadz-17" edge="1">
          <mxGeometry width="50" height="50" relative="1" as="geometry">
            <mxPoint x="360" y="800" as="sourcePoint" />
            <mxPoint x="270" y="648" as="targetPoint" />
            <Array as="points">
              <mxPoint x="360" y="800" />
              <mxPoint x="239" y="800" />
            </Array>
          </mxGeometry>
        </mxCell>
        <mxCell id="WmbsGpXp2DMXk3GeZqub-97" value="*" style="text;html=1;align=center;verticalAlign=middle;resizable=0;points=[];autosize=1;strokeColor=none;fillColor=none;" parent="1" vertex="1">
          <mxGeometry x="350" y="818" width="30" height="30" as="geometry" />
        </mxCell>
        <mxCell id="WmbsGpXp2DMXk3GeZqub-99" value="cursa" style="text;html=1;align=center;verticalAlign=middle;resizable=0;points=[];autosize=1;strokeColor=none;fillColor=none;" parent="1" vertex="1">
          <mxGeometry x="245" y="770" width="50" height="30" as="geometry" />
        </mxCell>
        <mxCell id="WmbsGpXp2DMXk3GeZqub-102" value="*" style="text;html=1;align=center;verticalAlign=middle;resizable=0;points=[];autosize=1;strokeColor=none;fillColor=none;" parent="1" vertex="1">
          <mxGeometry x="470" y="900" width="30" height="30" as="geometry" />
        </mxCell>
        <mxCell id="WmbsGpXp2DMXk3GeZqub-106" value="1" style="text;html=1;align=center;verticalAlign=middle;resizable=0;points=[];autosize=1;strokeColor=none;fillColor=none;" parent="1" vertex="1">
          <mxGeometry x="470" y="870" width="30" height="30" as="geometry" />
        </mxCell>
        <mxCell id="WmbsGpXp2DMXk3GeZqub-107" value="" style="endArrow=none;html=1;rounded=0;exitX=0.783;exitY=0.014;exitDx=0;exitDy=0;exitPerimeter=0;entryX=0.5;entryY=1.154;entryDx=0;entryDy=0;entryPerimeter=0;" parent="1" source="WmbsGpXp2DMXk3GeZqub-49" target="0xZ3MYLfQqbF8ofGHadz-1" edge="1">
          <mxGeometry width="50" height="50" relative="1" as="geometry">
            <mxPoint x="450" y="830" as="sourcePoint" />
            <mxPoint x="540" y="650" as="targetPoint" />
            <Array as="points">
              <mxPoint x="450" y="800" />
              <mxPoint x="600" y="800" />
            </Array>
          </mxGeometry>
        </mxCell>
        <mxCell id="WmbsGpXp2DMXk3GeZqub-108" value="*" style="text;html=1;align=center;verticalAlign=middle;resizable=0;points=[];autosize=1;strokeColor=none;fillColor=none;" parent="1" vertex="1">
          <mxGeometry x="420" y="818" width="30" height="30" as="geometry" />
        </mxCell>
        <mxCell id="WmbsGpXp2DMXk3GeZqub-109" value="*" style="text;html=1;align=center;verticalAlign=middle;resizable=0;points=[];autosize=1;strokeColor=none;fillColor=none;" parent="1" vertex="1">
          <mxGeometry x="570" y="500" width="30" height="30" as="geometry" />
        </mxCell>
        <mxCell id="WmbsGpXp2DMXk3GeZqub-110" value="dicta" style="text;html=1;align=center;verticalAlign=middle;resizable=0;points=[];autosize=1;strokeColor=none;fillColor=none;" parent="1" vertex="1">
          <mxGeometry x="480" y="770" width="50" height="30" as="geometry" />
        </mxCell>
        <mxCell id="WmbsGpXp2DMXk3GeZqub-112" value="" style="endArrow=none;dashed=1;html=1;rounded=0;" parent="1" edge="1">
          <mxGeometry width="50" height="50" relative="1" as="geometry">
            <mxPoint x="530" y="850" as="sourcePoint" />
            <mxPoint x="610" y="850" as="targetPoint" />
          </mxGeometry>
        </mxCell>
        <mxCell id="WmbsGpXp2DMXk3GeZqub-113" value="Correlativa" style="swimlane;fontStyle=0;childLayout=stackLayout;horizontal=1;startSize=26;fillColor=none;horizontalStack=0;resizeParent=1;resizeParentMax=0;resizeLast=0;collapsible=1;marginBottom=0;whiteSpace=wrap;html=1;" parent="1" vertex="1">
          <mxGeometry x="610" y="800" width="110" height="70" as="geometry" />
        </mxCell>
        <mxCell id="WmbsGpXp2DMXk3GeZqub-114" value="tipoMateria: materia" style="text;strokeColor=none;fillColor=none;align=left;verticalAlign=top;spacingLeft=4;spacingRight=4;overflow=hidden;rotatable=0;points=[[0,0.5],[1,0.5]];portConstraint=eastwest;whiteSpace=wrap;html=1;" parent="WmbsGpXp2DMXk3GeZqub-113" vertex="1">
          <mxGeometry y="26" width="110" height="44" as="geometry" />
        </mxCell>
        <mxCell id="WmbsGpXp2DMXk3GeZqub-117" value="" style="endArrow=diamondThin;endFill=1;endSize=24;html=1;rounded=0;exitX=0.787;exitY=1.062;exitDx=0;exitDy=0;exitPerimeter=0;entryX=1.004;entryY=0.756;entryDx=0;entryDy=0;entryPerimeter=0;" parent="1" source="WmbsGpXp2DMXk3GeZqub-51" target="WmbsGpXp2DMXk3GeZqub-54" edge="1">
          <mxGeometry width="160" relative="1" as="geometry">
            <mxPoint x="594.8400000000001" y="1116.1219999999998" as="sourcePoint" />
            <mxPoint x="560.3200000000002" y="970" as="targetPoint" />
            <Array as="points">
              <mxPoint x="450" y="980" />
              <mxPoint x="670" y="980" />
              <mxPoint x="670" y="1066" />
            </Array>
          </mxGeometry>
        </mxCell>
        <mxCell id="WmbsGpXp2DMXk3GeZqub-118" value="" style="endArrow=none;html=1;rounded=0;exitX=1;exitY=0.5;exitDx=0;exitDy=0;" parent="1" source="WmbsGpXp2DMXk3GeZqub-2" edge="1">
          <mxGeometry width="50" height="50" relative="1" as="geometry">
            <mxPoint x="620" y="210" as="sourcePoint" />
            <mxPoint x="670" y="160" as="targetPoint" />
          </mxGeometry>
        </mxCell>
        <mxCell id="WmbsGpXp2DMXk3GeZqub-119" value="1" style="text;html=1;align=center;verticalAlign=middle;resizable=0;points=[];autosize=1;strokeColor=none;fillColor=none;" parent="1" vertex="1">
          <mxGeometry x="460" y="138" width="30" height="30" as="geometry" />
        </mxCell>
        <mxCell id="WmbsGpXp2DMXk3GeZqub-120" value="1" style="text;html=1;align=center;verticalAlign=middle;resizable=0;points=[];autosize=1;strokeColor=none;fillColor=none;" parent="1" vertex="1">
          <mxGeometry x="645" y="138" width="30" height="30" as="geometry" />
        </mxCell>
        <mxCell id="WmbsGpXp2DMXk3GeZqub-121" value="tiene" style="text;html=1;align=center;verticalAlign=middle;resizable=0;points=[];autosize=1;strokeColor=none;fillColor=none;" parent="1" vertex="1">
          <mxGeometry x="535" y="138" width="50" height="30" as="geometry" />
        </mxCell>
        <mxCell id="WmbsGpXp2DMXk3GeZqub-122" value="" style="endArrow=none;html=1;rounded=0;exitX=-0.014;exitY=-0.064;exitDx=0;exitDy=0;exitPerimeter=0;entryX=-0.004;entryY=0.904;entryDx=0;entryDy=0;entryPerimeter=0;" parent="1" source="WmbsGpXp2DMXk3GeZqub-51" target="0xZ3MYLfQqbF8ofGHadz-17" edge="1">
          <mxGeometry width="50" height="50" relative="1" as="geometry">
            <mxPoint x="50" y="520" as="sourcePoint" />
            <mxPoint x="100" y="500" as="targetPoint" />
            <Array as="points">
              <mxPoint x="99" y="890" />
              <mxPoint x="100" y="710" />
            </Array>
          </mxGeometry>
        </mxCell>
        <mxCell id="WmbsGpXp2DMXk3GeZqub-125" value="*" style="text;html=1;align=center;verticalAlign=middle;resizable=0;points=[];autosize=1;strokeColor=none;fillColor=none;" parent="1" vertex="1">
          <mxGeometry x="310" y="870" width="30" height="30" as="geometry" />
        </mxCell>
        <mxCell id="WmbsGpXp2DMXk3GeZqub-126" value="rinden" style="text;html=1;align=center;verticalAlign=middle;resizable=0;points=[];autosize=1;strokeColor=none;fillColor=none;" parent="1" vertex="1">
          <mxGeometry x="20" y="696" width="60" height="30" as="geometry" />
        </mxCell>
        <mxCell id="WmbsGpXp2DMXk3GeZqub-127" value="" style="endArrow=none;dashed=1;html=1;rounded=0;entryX=0.968;entryY=0.841;entryDx=0;entryDy=0;entryPerimeter=0;" parent="1" target="WmbsGpXp2DMXk3GeZqub-129" edge="1">
          <mxGeometry width="50" height="50" relative="1" as="geometry">
            <mxPoint x="100" y="720" as="sourcePoint" />
            <mxPoint x="-50" y="720" as="targetPoint" />
          </mxGeometry>
        </mxCell>
        <mxCell id="WmbsGpXp2DMXk3GeZqub-128" value="Final" style="swimlane;fontStyle=0;childLayout=stackLayout;horizontal=1;startSize=26;fillColor=none;horizontalStack=0;resizeParent=1;resizeParentMax=0;resizeLast=0;collapsible=1;marginBottom=0;whiteSpace=wrap;html=1;" parent="1" vertex="1">
          <mxGeometry x="-80" y="672" width="90" height="78" as="geometry" />
        </mxCell>
        <mxCell id="WmbsGpXp2DMXk3GeZqub-129" value="fecha" style="text;strokeColor=none;fillColor=none;align=left;verticalAlign=top;spacingLeft=4;spacingRight=4;overflow=hidden;rotatable=0;points=[[0,0.5],[1,0.5]];portConstraint=eastwest;whiteSpace=wrap;html=1;" parent="WmbsGpXp2DMXk3GeZqub-128" vertex="1">
          <mxGeometry y="26" width="90" height="26" as="geometry" />
        </mxCell>
        <mxCell id="WmbsGpXp2DMXk3GeZqub-130" value="nota" style="text;strokeColor=none;fillColor=none;align=left;verticalAlign=top;spacingLeft=4;spacingRight=4;overflow=hidden;rotatable=0;points=[[0,0.5],[1,0.5]];portConstraint=eastwest;whiteSpace=wrap;html=1;" parent="WmbsGpXp2DMXk3GeZqub-128" vertex="1">
          <mxGeometry y="52" width="90" height="26" as="geometry" />
        </mxCell>
        <mxCell id="WmbsGpXp2DMXk3GeZqub-133" value="tipo: tipoUser" style="text;strokeColor=none;fillColor=none;align=left;verticalAlign=top;spacingLeft=4;spacingRight=4;overflow=hidden;rotatable=0;points=[[0,0.5],[1,0.5]];portConstraint=eastwest;whiteSpace=wrap;html=1;" parent="1" vertex="1">
          <mxGeometry x="670" y="200" width="140" height="26" as="geometry" />
        </mxCell>
        <mxCell id="WmbsGpXp2DMXk3GeZqub-134" value="TUser" style="swimlane;fontStyle=0;childLayout=stackLayout;horizontal=1;startSize=26;fillColor=none;horizontalStack=0;resizeParent=1;resizeParentMax=0;resizeLast=0;collapsible=1;marginBottom=0;whiteSpace=wrap;html=1;" parent="1" vertex="1">
          <mxGeometry x="-280" y="160" width="140" height="106" as="geometry" />
        </mxCell>
        <mxCell id="WmbsGpXp2DMXk3GeZqub-135" value="admin" style="text;strokeColor=none;fillColor=none;align=left;verticalAlign=top;spacingLeft=4;spacingRight=4;overflow=hidden;rotatable=0;points=[[0,0.5],[1,0.5]];portConstraint=eastwest;whiteSpace=wrap;html=1;" parent="WmbsGpXp2DMXk3GeZqub-134" vertex="1">
          <mxGeometry y="26" width="140" height="26" as="geometry" />
        </mxCell>
        <mxCell id="WmbsGpXp2DMXk3GeZqub-136" value="alumno" style="text;strokeColor=none;fillColor=none;align=left;verticalAlign=top;spacingLeft=4;spacingRight=4;overflow=hidden;rotatable=0;points=[[0,0.5],[1,0.5]];portConstraint=eastwest;whiteSpace=wrap;html=1;" parent="WmbsGpXp2DMXk3GeZqub-134" vertex="1">
          <mxGeometry y="52" width="140" height="28" as="geometry" />
        </mxCell>
        <mxCell id="WmbsGpXp2DMXk3GeZqub-137" value="profesor" style="text;strokeColor=none;fillColor=none;align=left;verticalAlign=top;spacingLeft=4;spacingRight=4;overflow=hidden;rotatable=0;points=[[0,0.5],[1,0.5]];portConstraint=eastwest;whiteSpace=wrap;html=1;" parent="WmbsGpXp2DMXk3GeZqub-134" vertex="1">
          <mxGeometry y="80" width="140" height="26" as="geometry" />
        </mxCell>
        <mxCell id="0xZ3MYLfQqbF8ofGHadz-3" value="TCategoria" style="swimlane;fontStyle=0;childLayout=stackLayout;horizontal=1;startSize=26;fillColor=none;horizontalStack=0;resizeParent=1;resizeParentMax=0;resizeLast=0;collapsible=1;marginBottom=0;whiteSpace=wrap;html=1;" parent="1" vertex="1">
          <mxGeometry x="-280" y="20" width="140" height="104" as="geometry" />
        </mxCell>
        <mxCell id="0xZ3MYLfQqbF8ofGHadz-4" value="profesor_responsable" style="text;strokeColor=none;fillColor=none;align=left;verticalAlign=top;spacingLeft=4;spacingRight=4;overflow=hidden;rotatable=0;points=[[0,0.5],[1,0.5]];portConstraint=eastwest;whiteSpace=wrap;html=1;" parent="0xZ3MYLfQqbF8ofGHadz-3" vertex="1">
          <mxGeometry y="26" width="140" height="26" as="geometry" />
        </mxCell>
        <mxCell id="0xZ3MYLfQqbF8ofGHadz-9" value="jefe_practico" style="text;strokeColor=none;fillColor=none;align=left;verticalAlign=top;spacingLeft=4;spacingRight=4;overflow=hidden;rotatable=0;points=[[0,0.5],[1,0.5]];portConstraint=eastwest;whiteSpace=wrap;html=1;" parent="0xZ3MYLfQqbF8ofGHadz-3" vertex="1">
          <mxGeometry y="52" width="140" height="26" as="geometry" />
        </mxCell>
        <mxCell id="0xZ3MYLfQqbF8ofGHadz-10" value="ayudante" style="text;strokeColor=none;fillColor=none;align=left;verticalAlign=top;spacingLeft=4;spacingRight=4;overflow=hidden;rotatable=0;points=[[0,0.5],[1,0.5]];portConstraint=eastwest;whiteSpace=wrap;html=1;" parent="0xZ3MYLfQqbF8ofGHadz-3" vertex="1">
          <mxGeometry y="78" width="140" height="26" as="geometry" />
        </mxCell>
        <mxCell id="0xZ3MYLfQqbF8ofGHadz-21" value="*" style="text;html=1;align=center;verticalAlign=middle;resizable=0;points=[];autosize=1;strokeColor=none;fillColor=none;" parent="1" vertex="1">
          <mxGeometry x="235" y="496" width="30" height="30" as="geometry" />
        </mxCell>
        <mxCell id="0xZ3MYLfQqbF8ofGHadz-22" value="*" style="text;html=1;align=center;verticalAlign=middle;resizable=0;points=[];autosize=1;strokeColor=none;fillColor=none;" parent="1" vertex="1">
          <mxGeometry x="314" y="1128" width="30" height="30" as="geometry" />
        </mxCell>
        <mxCell id="0xZ3MYLfQqbF8ofGHadz-23" value="" style="endArrow=none;html=1;rounded=0;entryX=0.879;entryY=-0.015;entryDx=0;entryDy=0;entryPerimeter=0;" parent="1" target="WmbsGpXp2DMXk3GeZqub-49" edge="1">
          <mxGeometry width="50" height="50" relative="1" as="geometry">
            <mxPoint x="480" y="880" as="sourcePoint" />
            <mxPoint x="530" y="830" as="targetPoint" />
            <Array as="points">
              <mxPoint x="530" y="880" />
              <mxPoint x="530" y="820" />
              <mxPoint x="463" y="820" />
            </Array>
          </mxGeometry>
        </mxCell>
        <mxCell id="0xZ3MYLfQqbF8ofGHadz-24" value="*" style="text;html=1;align=center;verticalAlign=middle;resizable=0;points=[];autosize=1;strokeColor=none;fillColor=none;" parent="1" vertex="1">
          <mxGeometry x="455" y="818" width="30" height="30" as="geometry" />
        </mxCell>
        <mxCell id="0xZ3MYLfQqbF8ofGHadz-25" value="correlativa" style="text;html=1;align=center;verticalAlign=middle;resizable=0;points=[];autosize=1;strokeColor=none;fillColor=none;" parent="1" vertex="1">
          <mxGeometry x="490" y="878" width="80" height="30" as="geometry" />
        </mxCell>
        <mxCell id="0xZ3MYLfQqbF8ofGHadz-26" value="*" style="text;html=1;align=center;verticalAlign=middle;resizable=0;points=[];autosize=1;strokeColor=none;fillColor=none;" parent="1" vertex="1">
          <mxGeometry x="140" y="1098" width="30" height="30" as="geometry" />
        </mxCell>
        <mxCell id="0xZ3MYLfQqbF8ofGHadz-27" value="" style="endArrow=diamondThin;endFill=0;endSize=24;html=1;rounded=0;entryX=0.478;entryY=-0.027;entryDx=0;entryDy=0;entryPerimeter=0;" parent="1" target="WmbsGpXp2DMXk3GeZqub-56" edge="1">
          <mxGeometry width="160" relative="1" as="geometry">
            <mxPoint x="340" y="910" as="sourcePoint" />
            <mxPoint x="310" y="920" as="targetPoint" />
            <Array as="points">
              <mxPoint x="150" y="910" />
            </Array>
          </mxGeometry>
        </mxCell>
        <mxCell id="ywBsDaBNvZv1VEneGBql-1" value="TMateria" style="swimlane;fontStyle=0;childLayout=stackLayout;horizontal=1;startSize=26;fillColor=none;horizontalStack=0;resizeParent=1;resizeParentMax=0;resizeLast=0;collapsible=1;marginBottom=0;whiteSpace=wrap;html=1;" parent="1" vertex="1">
          <mxGeometry x="-480" y="20" width="140" height="104" as="geometry" />
        </mxCell>
        <mxCell id="ywBsDaBNvZv1VEneGBql-2" value="regular" style="text;strokeColor=none;fillColor=none;align=left;verticalAlign=top;spacingLeft=4;spacingRight=4;overflow=hidden;rotatable=0;points=[[0,0.5],[1,0.5]];portConstraint=eastwest;whiteSpace=wrap;html=1;" parent="ywBsDaBNvZv1VEneGBql-1" vertex="1">
          <mxGeometry y="26" width="140" height="26" as="geometry" />
        </mxCell>
        <mxCell id="ywBsDaBNvZv1VEneGBql-3" value="libre" style="text;strokeColor=none;fillColor=none;align=left;verticalAlign=top;spacingLeft=4;spacingRight=4;overflow=hidden;rotatable=0;points=[[0,0.5],[1,0.5]];portConstraint=eastwest;whiteSpace=wrap;html=1;" parent="ywBsDaBNvZv1VEneGBql-1" vertex="1">
          <mxGeometry y="52" width="140" height="26" as="geometry" />
        </mxCell>
        <mxCell id="ywBsDaBNvZv1VEneGBql-4" value="promocion" style="text;strokeColor=none;fillColor=none;align=left;verticalAlign=top;spacingLeft=4;spacingRight=4;overflow=hidden;rotatable=0;points=[[0,0.5],[1,0.5]];portConstraint=eastwest;whiteSpace=wrap;html=1;" parent="ywBsDaBNvZv1VEneGBql-1" vertex="1">
          <mxGeometry y="78" width="140" height="26" as="geometry" />
        </mxCell>
        <mxCell id="LIgzqigY4Go6K1KlvnwG-1" value="pertenece" style="text;html=1;align=center;verticalAlign=middle;resizable=0;points=[];autosize=1;strokeColor=none;fillColor=none;" vertex="1" parent="1">
          <mxGeometry x="-320" y="778" width="80" height="30" as="geometry" />
        </mxCell>
      </root>
    </mxGraphModel>
  </diagram>
</mxfile>
